Coordinates
version=1
nRows=11
nColumns=40
inDegrees=yes

Units are S.I. units (second, meters, Newtons, ...)
Angles are in degrees.

endheader
time	pelvis_tilt	pelvis_list	pelvis_rotation	pelvis_tx	pelvis_ty	pelvis_tz	hip_flexion_r	hip_adduction_r	hip_rotation_r	knee_angle_r	knee_angle_r_beta	ankle_angle_r	subtalar_angle_r	mtp_angle_r	hip_flexion_l	hip_adduction_l	hip_rotation_l	knee_angle_l	knee_angle_l_beta	ankle_angle_l	subtalar_angle_l	mtp_angle_l	lumbar_extension	lumbar_bending	lumbar_rotation	arm_flex_r	arm_add_r	arm_rot_r	elbow_flex_r	pro_sup_r	wrist_flex_r	wrist_dev_r	arm_flex_l	arm_add_l	arm_rot_l	elbow_flex_l	pro_sup_l	wrist_flex_l	wrist_dev_l
     57.46500000	     -5.25409184	     -5.61835723	      5.86762512	      0.99412858	      0.91623586	      0.44405383	     -1.88162296	      5.68352777	    -21.01973082	      7.47791543	      7.47791543	     16.79295971	      2.52148137	     -3.75888810	     33.44483711	     -6.14782543	     -2.85681320	     22.72434130	     22.72434130	      3.95166063	    -10.63979666	      8.08403846	     -7.20133263	      6.71501209	      4.85601631	     41.56720830	    -18.41132249	     -7.71464092	     98.57921350	     44.46779294	      0.00000000	      0.00000000	    -11.86539481	     -7.41358995	      7.37869578	     22.75888577	     44.57332956	      0.00000000	      0.00000000
     57.47735714	     -5.20318248	     -5.42906214	      5.74680439	      0.99552775	      0.91526406	      0.44227971	     -2.44629433	      5.34314373	    -20.76971014	      7.77213847	      7.77213847	     17.21524615	      2.44450645	     -3.84047820	     32.96212745	     -5.88919425	     -2.78117525	     23.64340954	     23.64340954	      3.82668475	    -11.04845775	      7.95571644	     -7.08001865	      6.41110269	      4.76401955	     41.20659892	    -18.16334198	     -7.60823729	     98.62154141	     44.46387410	      0.00000000	      0.00000000	    -11.70837009	     -7.49595352	      7.38542619	     22.77439688	     44.57866158	      0.00000000	      0.00000000
     57.48971429	     -5.25826928	     -5.28617616	      5.61767746	      0.99677588	      0.91422961	      0.44029467	     -2.51523501	      4.89066721	    -20.46100972	      8.80720798	      8.80720798	     17.84158516	      1.92178796	     -3.48478676	     32.63771534	     -5.54592348	     -2.23522066	     24.50922286	     24.50922286	      3.56743813	    -12.16696871	      7.65218937	     -6.86138266	      6.21428777	      4.71432689	     40.65706444	    -17.87508247	     -7.59885079	     99.09970539	     44.46302862	      0.00000000	      0.00000000	    -11.47404926	     -7.51066247	      7.41179606	     22.78935187	     44.60264720	      0.00000000	      0.00000000
     57.50207143	     -5.14074594	     -5.10858541	      5.50137368	      0.99829858	      0.91379792	      0.43820017	     -3.05959293	      4.50178690	    -20.23460777	      9.26943162	      9.26943162	     18.09632748	      1.78273623	     -3.44263673	     32.10461137	     -5.28084052	     -2.05288826	     25.30074596	     25.30074596	      3.74649902	    -12.62293778	      7.41728463	     -6.80407787	      5.99682100	      4.64468456	     39.93716514	    -17.61864143	     -7.48126052	     99.02689136	     44.46226804	      0.00000000	      0.00000000	    -11.09877518	     -7.53392261	      7.40870809	     22.90418785	     44.61558924	      0.00000000	      0.00000000
     57.51442857	     -5.19914913	     -4.89606995	      5.35148854	      0.99953924	      0.91341160	      0.43587697	     -3.03365156	      3.90316702	    -19.91351839	     10.47373769	     10.47373769	     18.58009784	      1.26148611	     -3.06050120	     31.72493613	     -4.88656132	     -1.67220805	     25.89651111	     25.89651111	      3.86971687	    -13.47596191	      7.17149007	     -6.60850468	      5.76095501	      4.74788946	     38.95963583	    -17.50165584	     -7.57029318	     99.09289762	     44.47466300	      0.00000000	      0.00000000	    -10.53521545	     -7.52327737	      7.35955824	     23.04966594	     44.65770547	      0.00000000	      0.00000000
     57.52678571	     -5.05398376	     -4.75444329	      5.25378886	      1.00097943	      0.91373924	      0.43343007	     -3.47790380	      3.47929812	    -19.73380787	     11.14009817	     11.14009817	     18.60764455	      1.08886977	     -3.02860856	     31.14758201	     -4.64265182	     -1.50978562	     26.45819159	     26.45819159	      4.32371773	    -13.85575114	      6.92677084	     -6.61881653	      5.64373930	      4.62287552	     37.91441819	    -17.17047093	     -7.41057880	     98.84546772	     44.47636131	      0.00000000	      0.00000000	     -9.95875921	     -7.49784751	      7.34714211	     23.23914736	     44.67554517	      0.00000000	      0.00000000
     57.53914286	     -5.11670236	     -4.50109190	      5.09607774	      1.00203525	      0.91413659	      0.43076987	     -3.19029735	      2.70540906	    -19.46690971	     12.79098715	     12.79098715	     18.80326078	      0.51591372	     -3.07644623	     30.69693260	     -4.24040910	     -1.38024203	     26.76972757	     26.76972757	      4.76020107	    -14.39633362	      6.84062624	     -6.44675138	      5.40739000	      4.72437885	     36.66280771	    -17.09200990	     -7.47652268	     98.35514492	     44.49940845	      0.00000000	      0.00000000	     -9.19117210	     -7.46597849	      7.25570313	     23.47707281	     44.72153120	      0.00000000	      0.00000000
     57.55150000	     -5.08677438	     -4.32242036	      4.96776530	      1.00310414	      0.91505613	      0.42797728	     -3.03904866	      2.02916494	    -19.25121822	     14.31561124	     14.31561124	     18.71963341	      0.04481216	     -3.23661520	     30.11459311	     -3.92498409	     -1.30113695	     26.96580537	     26.96580537	      5.31124432	    -14.76770577	      6.81066472	     -6.38282734	      5.29922213	      4.73903561	     35.26740373	    -16.88653262	     -7.48679399	     97.71170059	     44.52435986	      0.00000000	      0.00000000	     -8.35162742	     -7.40722381	      7.14339434	     23.73803441	     44.77166237	      0.00000000	      0.00000000
     57.56385714	     -5.05882674	     -4.14980008	      4.82902342	      1.00405606	      0.91629083	      0.42510305	     -2.71060737	      1.28940481	    -19.03592655	     16.13342371	     16.13342371	     18.45109958	     -0.51902422	     -3.64246654	     29.46023298	     -3.63135690	     -1.33406299	     26.99695355	     26.99695355	      5.90851499	    -14.99917349	      6.81901015	     -6.33975041	      5.20275894	      4.75395778	     33.75786305	    -16.68471281	     -7.47532058	     96.81332790	     44.55530371	      0.00000000	      0.00000000	     -7.44378065	     -7.34055389	      7.00114095	     24.06806661	     44.82628019	      0.00000000	      0.00000000
     57.57621429	     -5.04002655	     -4.01124742	      4.69090000	      1.00485434	      0.91773912	      0.42211930	     -2.18924111	      0.52374230	    -18.79786747	     18.24584323	     18.24584323	     17.98258308	     -1.23954713	     -4.34428060	     28.74928293	     -3.37107428	     -1.44006719	     26.87539306	     26.87539306	      6.50124413	    -15.14207332	      6.88092470	     -6.29372440	      5.20910334	      4.76044203	     32.15104622	    -16.46863781	     -7.47692028	     95.63800964	     44.59539337	      0.00000000	      0.00000000	     -6.45874680	     -7.26347662	      6.80383568	     24.48489936	     44.89134640	      0.00000000	      0.00000000
     57.58857143	     -5.06743245	     -3.88584293	      4.51419019	      1.00548258	      0.91927442	      0.41921953	     -1.39118365	     -0.28809383	    -18.44872050	     20.70835711	     20.70835711	     17.18995808	     -2.20553593	     -5.43222834	     28.01780585	     -3.14217456	     -1.59029553	     26.61388222	     26.61388222	      7.06848081	    -15.15519124	      6.96340000	     -6.20909440	      5.16187570	      4.79934977	     30.53772880	    -16.26032835	     -7.52178380	     94.11394379	     44.64920371	      0.00000000	      0.00000000	     -5.44361000	     -7.17750797	      6.51281191	     25.01532368	     44.97308133	      0.00000000	      0.00000000
